<svg width="450" height="200" viewBox="0 0 450 200" fill="none" xmlns="http://www.w3.org/2000/svg">
<path d="M191.667 172.667L194 170.333L196.333 172.667L198.667 169.167L201 172.667L203.333 169.167L205.667 172.667L208 170.333L210.333 172.667V158.667C210.333 153.512 206.155 149.333 201 149.333C195.845 149.333 191.667 153.512 191.667 158.667V172.667Z" stroke="white" stroke-width="2" stroke-linejoin="round"/>
<path d="M198.083 158.667H199.25" stroke="white" stroke-width="2" stroke-linecap="round" stroke-linejoin="round"/>
<path d="M205.083 158.667H206.25" stroke="white" stroke-width="2" stroke-linecap="round" stroke-linejoin="round"/>
<path d="M113.333 161V154H118.583V152.833C118.583 150.9 120.15 149.333 122.083 149.333C124.016 149.333 125.583 150.9 125.583 152.833V154H130.833V161H133.167C135.1 161 136.667 162.567 136.667 164.5C136.667 166.433 135.1 168 133.167 168H130.833V172.667H113.333V168H115.667C117.6 168 119.167 166.433 119.167 164.5C119.167 162.567 117.6 161 115.667 161H113.333Z" stroke="white" stroke-width="2" stroke-linejoin="round"/>
<path d="M58.4654 152.563C56.3272 150.56 53.4526 149.333 50.2917 149.333C43.6873 149.333 38.3333 154.687 38.3333 161.292C38.3333 167.896 43.6873 173.25 50.2917 173.25C53.567 173.25 56.5347 171.933 58.6945 169.8L50 161L58.4654 152.563Z" stroke="white" stroke-width="2" stroke-linejoin="round"/>
<path d="M59.3333 163.333C60.622 163.333 61.6667 162.289 61.6667 161C61.6667 159.711 60.622 158.667 59.3333 158.667C58.0447 158.667 57 159.711 57 161C57 162.289 58.0447 163.333 59.3333 163.333Z" stroke="white" stroke-width="2" stroke-linejoin="round"/>
<path d="M45.9167 154.583V159.25" stroke="white" stroke-width="2" stroke-linecap="round" stroke-linejoin="round"/>
<path d="M43.5833 156.917H48.25" stroke="white" stroke-width="2" stroke-linecap="round" stroke-linejoin="round"/>
<path d="M280.083 172.083C280.083 172.083 272.5 172.667 268.417 168C264.333 163.333 264.333 149.333 264.333 149.333C264.333 149.333 278.333 148.75 283 152.25C287.667 155.75 286.5 165.667 286.5 165.667" stroke="white" stroke-width="2" stroke-linecap="round" stroke-linejoin="round"/>
<path d="M287.667 172.667C287.667 172.667 281.145 167.738 277.167 163.333C273.188 158.928 271.333 154.583 271.333 154.583" stroke="white" stroke-width="2" stroke-linecap="round" stroke-linejoin="round"/>
<path d="M277.167 163.333L277.75 155.75" stroke="white" stroke-width="2" stroke-linecap="round" stroke-linejoin="round"/>
<path d="M277.167 163.333L271.333 162.75" stroke="white" stroke-width="2" stroke-linecap="round" stroke-linejoin="round"/>
<path d="M363.5 169.75V152.25C363.5 151.284 362.717 150.5 361.75 150.5L344.25 150.5C343.283 150.5 342.5 151.284 342.5 152.25L342.5 169.75C342.5 170.717 343.284 171.5 344.25 171.5H361.75C362.717 171.5 363.5 170.717 363.5 169.75Z" stroke="white" stroke-width="2" stroke-linejoin="round"/>
<path d="M353 157.684L351.311 161.132L347.474 161.688L350.253 164.406L349.589 168.184L353 166.366L356.411 168.184L355.752 164.406L358.526 161.688L354.711 161.132L353 157.684Z" stroke="white" stroke-width="2" stroke-linejoin="round"/>
<path d="M349.684 154.368H356.316" stroke="white" stroke-width="2" stroke-linecap="round" stroke-linejoin="round"/>
<g clip-path="url(#clip0_1_527)">
<path d="M415.834 168.833C414.161 166.666 413.167 163.949 413.167 161C413.167 153.912 418.912 148.167 426 148.167C433.088 148.167 438.833 153.912 438.833 161C438.833 163.949 437.839 166.666 436.166 168.833" stroke="white" stroke-width="2" stroke-linecap="round" stroke-linejoin="round"/>
<path d="M419.177 165.49C418.328 164.201 417.833 162.658 417.833 161C417.833 156.49 421.49 152.833 426 152.833C430.51 152.833 434.167 156.49 434.167 161C434.167 162.658 433.672 164.201 432.823 165.49" stroke="white" stroke-width="2" stroke-linecap="round" stroke-linejoin="round"/>
<path fill-rule="evenodd" clip-rule="evenodd" d="M426 164.5L435.333 173.833H416.667L426 164.5Z" stroke="white" stroke-width="2" stroke-linecap="round" stroke-linejoin="round"/>
</g>
<path d="M2.33333 112H4.08333" stroke="white" stroke-width="2" stroke-linecap="round" stroke-linejoin="round"/>
<path d="M5.83333 103.833L6.99999 105" stroke="white" stroke-width="2" stroke-linecap="round" stroke-linejoin="round"/>
<path d="M14 100.333V102.083" stroke="white" stroke-width="2" stroke-linecap="round" stroke-linejoin="round"/>
<path d="M8.16667 112C8.16667 108.779 10.7786 106.167 14 106.167C17.2214 106.167 19.8333 108.779 19.8333 112C19.8333 113.964 18.8625 115.702 17.3746 116.759" stroke="white" stroke-width="2" stroke-linecap="round" stroke-linejoin="round"/>
<path d="M22.1667 103.833L21 105" stroke="white" stroke-width="2" stroke-linecap="round" stroke-linejoin="round"/>
<path d="M25.6667 112H23.9167" stroke="white" stroke-width="2" stroke-linecap="round" stroke-linejoin="round"/>
<path d="M22.1558 120.156L21.2108 119.211" stroke="white" stroke-width="2" stroke-linecap="round" stroke-linejoin="round"/>
<path d="M13.7083 114.333C11.9583 114.333 8.16666 114.45 8.16666 116.083C8.16666 117.717 10.8534 117.711 12.2499 117.833C13.4167 117.935 15.4364 118.818 15.1666 120.167C14.5832 123.083 5.24989 122.5 2.91663 122.5" stroke="white" stroke-width="2" stroke-linecap="round" stroke-linejoin="round"/>
<path d="M80.4167 116.667L84.5 111.417L88 116.667L91.5 111.417L94.4167 116.083H99.6667" stroke="white" stroke-width="2" stroke-miterlimit="2" stroke-linecap="round" stroke-linejoin="round"/>
<path d="M99.6667 109.083C99.6667 105.54 96.7938 102.667 93.25 102.667C91.0798 102.667 89.1613 103.744 88 105.393C86.8388 103.744 84.9202 102.667 82.75 102.667C79.2062 102.667 76.3333 105.54 76.3333 109.083C76.3333 115.5 83.9167 121.333 88 122.69C88.6963 122.459 89.4943 122.097 90.3391 121.625" stroke="white" stroke-width="2" stroke-linecap="round" stroke-linejoin="round"/>
<path d="M150.333 109.6C150.333 105.126 153.895 101.5 158.288 101.5C161.961 101.5 165.053 104.035 165.968 107.481C166.687 107.109 167.501 106.9 168.364 106.9C171.292 106.9 173.667 109.317 173.667 112.3C173.667 114.424 172.461 116.263 170.709 117.144C170.563 117.217 170.4 117.25 170.237 117.25H156.75" stroke="white" stroke-width="2" stroke-linecap="round" stroke-linejoin="round"/>
<path d="M156.75 117.25H155C153.711 117.25 152.667 118.295 152.667 119.583C152.667 120.872 153.711 121.917 155 121.917H156.75" stroke="white" stroke-width="2" stroke-linecap="round" stroke-linejoin="round"/>
<path d="M160.833 108.5H159.083C157.795 108.5 156.75 109.545 156.75 110.833C156.75 112.122 157.795 113.167 159.083 113.167H160.833" stroke="white" stroke-width="2" stroke-linecap="round" stroke-linejoin="round"/>
<path d="M159.083 113.167H166.667" stroke="white" stroke-width="2" stroke-linecap="round" stroke-linejoin="round"/>
<path d="M227.916 116.85L236.686 101.467C237.226 100.322 238.199 99.7501 239.607 99.7501C241.719 99.7501 243.093 102.659 243.093 102.659C243.093 102.659 243.868 102.774 245.416 103.005C243.077 103.043 241.724 103.514 241.358 104.417C240.809 105.771 242.791 107.176 243.093 109.086C243.396 110.995 242.189 114.22 239.285 115.831C237.349 116.905 234.932 117.184 232.034 116.667L228.476 123.083" stroke="white" stroke-width="2" stroke-linecap="round" stroke-linejoin="round"/>
<path fill-rule="evenodd" clip-rule="evenodd" d="M233.716 113.737C235.221 111.025 236.21 109.284 236.684 108.513C237.395 107.356 240.327 107.705 239.273 110.591C238.571 112.515 236.719 113.564 233.716 113.737Z" stroke="white" stroke-width="2" stroke-linejoin="round"/>
<path fill-rule="evenodd" clip-rule="evenodd" d="M244.231 117.241C244.897 115.644 245.87 114.677 247.15 114.339C248.429 114 249.596 114.206 250.65 114.957C249.993 116.471 249.02 117.442 247.73 117.869C246.44 118.296 245.274 118.087 244.231 117.241Z" stroke="white" stroke-width="2" stroke-linejoin="round"/>
<path fill-rule="evenodd" clip-rule="evenodd" d="M240.741 118.483C241.183 120.071 242.352 121.133 244.25 121.669C246.147 122.205 247.709 121.899 248.936 120.75C247.418 118.983 246.051 118.012 244.834 117.839C243.617 117.666 242.253 117.881 240.741 118.483Z" stroke="white" stroke-width="2" stroke-linejoin="round"/>
<path d="M314.917 108.5V107.333C314.917 105.723 313.611 104.417 312 104.417C310.389 104.417 309.083 105.723 309.083 107.333V108.5" stroke="white" stroke-width="2" stroke-linecap="round" stroke-linejoin="round"/>
<path d="M307.917 108.5H316.083L314.827 112.583H309.173L307.917 108.5Z" stroke="white" stroke-width="2" stroke-linecap="round" stroke-linejoin="round"/>
<path d="M305 110.833H300.917V114.917H305V110.833Z" stroke="white" stroke-width="2" stroke-linejoin="round"/>
<path d="M323.083 110.833H319V114.917H323.083V110.833Z" stroke="white" stroke-width="2" stroke-linejoin="round"/>
<path d="M307.333 102.667H300.333" stroke="white" stroke-width="2" stroke-linecap="round" stroke-linejoin="round"/>
<path d="M315.5 117.25L317.833 121.333" stroke="white" stroke-width="2" stroke-linecap="round" stroke-linejoin="round"/>
<path d="M308.5 117.25L306.167 121.333" stroke="white" stroke-width="2" stroke-linecap="round" stroke-linejoin="round"/>
<path d="M323.667 102.667H316.667" stroke="white" stroke-width="2" stroke-linecap="round" stroke-linejoin="round"/>
<path d="M395.917 105.583H376.083C375.439 105.583 374.917 106.106 374.917 106.75V120.75C374.917 121.394 375.439 121.917 376.083 121.917H395.917C396.561 121.917 397.083 121.394 397.083 120.75V106.75C397.083 106.106 396.561 105.583 395.917 105.583Z" stroke="white" stroke-width="2"/>
<path d="M382.5 117.833C384.433 117.833 386 116.266 386 114.333C386 112.4 384.433 110.833 382.5 110.833C380.567 110.833 379 112.4 379 114.333C379 116.266 380.567 117.833 382.5 117.833Z" stroke="white" stroke-width="2"/>
<path d="M389.5 112H393" stroke="white" stroke-width="2" stroke-linecap="round" stroke-linejoin="round"/>
<path d="M389.5 116.667H393" stroke="white" stroke-width="2" stroke-linecap="round" stroke-linejoin="round"/>
<path d="M376.083 105.583L386.583 100.333" stroke="white" stroke-width="2" stroke-linecap="round" stroke-linejoin="round"/>
<path d="M50 74.6667C55.4768 74.6667 59.9167 70.2268 59.9167 64.75C59.9167 59.2732 55.4768 54.8333 50 54.8333C44.5232 54.8333 40.0833 59.2732 40.0833 64.75C40.0833 70.2268 44.5232 74.6667 50 74.6667Z" stroke="white" stroke-width="2" stroke-linejoin="round"/>
<path d="M54.0833 51.3333H45.9167" stroke="white" stroke-width="2" stroke-linecap="round" stroke-linejoin="round"/>
<path d="M58.1667 54.8333L56.4167 56.5833" stroke="white" stroke-width="2" stroke-linecap="round" stroke-linejoin="round"/>
<path d="M50 59.5V64.75" stroke="white" stroke-width="2" stroke-linecap="round" stroke-linejoin="round"/>
<path fill-rule="evenodd" clip-rule="evenodd" d="M125 72.9284C126.418 72.9284 127.001 73.6926 127.762 73.8625C128.522 74.0324 129.16 74.0795 129.813 73.7916C131.107 73.2213 131.896 72.542 132.854 71.5275C134.628 69.6473 135.5 67.062 135.5 63.6C135.5 60.1379 134.566 58.3488 133.128 57.1784C131.689 56.0082 130.855 55.7839 129.115 56.0082C127.376 56.2323 126.429 58.1015 125.005 58.1015C123.581 58.1015 121.846 56.2585 120.337 56.0082C118.827 55.7578 118 56.0082 116.693 57.1784C115.386 58.3488 114.5 60.1712 114.5 63.6C114.5 67.0288 115.405 69.5712 117.179 71.4514C118.136 72.466 118.892 73.2213 120.187 73.7916C120.84 74.0795 121.516 74.0324 122.249 73.8625C122.983 73.6926 123.566 72.9284 125 72.9284Z" stroke="white" stroke-width="2"/>
<path d="M125.005 58.1015C125.463 53.5894 127.408 51.3333 130.84 51.3333C131.155 52.2829 131.236 53.202 131.084 54.0905C131.012 54.5125 130.787 55.1144 130.411 55.8961" stroke="white" stroke-width="2" stroke-linecap="round"/>
<path d="M119.3 64.1667C119.139 64.9517 119.139 65.7599 119.3 66.5914C119.461 67.4228 119.805 68.0644 120.331 68.5162" stroke="white" stroke-width="2" stroke-linecap="round"/>
<path d="M212.083 60.6667C212.083 59.4 201.52 53.732 198.745 52.2645C198.34 52.0503 197.852 52.0986 197.491 52.3818L189.917 58.3333" stroke="white" stroke-width="2" stroke-linecap="round" stroke-linejoin="round"/>
<path d="M189.917 59.2971C189.917 58.5219 190.657 57.9567 191.407 58.1513C195.144 59.1207 205.002 61.4443 210.428 60.526C211.241 60.3884 212.083 60.9799 212.083 61.8047V71.2265C212.083 71.8469 211.598 72.3589 210.978 72.3915L191.145 73.4354C190.477 73.4705 189.917 72.9387 189.917 72.2703V59.2971Z" stroke="white" stroke-width="2" stroke-linecap="round" stroke-linejoin="round"/>
<path d="M194 64.75C194.644 64.75 195.167 64.2277 195.167 63.5833C195.167 62.939 194.644 62.4167 194 62.4167C193.356 62.4167 192.833 62.939 192.833 63.5833C192.833 64.2277 193.356 64.75 194 64.75Z" fill="white"/>
<path d="M201.583 65.9167C202.228 65.9167 202.75 65.3943 202.75 64.75C202.75 64.1057 202.228 63.5833 201.583 63.5833C200.939 63.5833 200.417 64.1057 200.417 64.75C200.417 65.3943 200.939 65.9167 201.583 65.9167Z" fill="white"/>
<path d="M206.833 68.8333C207.478 68.8333 208 68.311 208 67.6667C208 67.0223 207.478 66.5 206.833 66.5C206.189 66.5 205.667 67.0223 205.667 67.6667C205.667 68.311 206.189 68.8333 206.833 68.8333Z" fill="white"/>
<path d="M197.5 68.8333C198.144 68.8333 198.667 68.311 198.667 67.6667C198.667 67.0223 198.144 66.5 197.5 66.5C196.856 66.5 196.333 67.0223 196.333 67.6667C196.333 68.311 196.856 68.8333 197.5 68.8333Z" fill="white" stroke="white" stroke-width="2"/>
<path fill-rule="evenodd" clip-rule="evenodd" d="M264.333 63C264.333 69.4433 268.222 74.6667 276 74.6667C283.778 74.6667 287.667 69.4433 287.667 63H264.333Z" stroke="white" stroke-width="2" stroke-linecap="round" stroke-linejoin="round"/>
<path d="M271.333 63V53.6667" stroke="white" stroke-width="2" stroke-linecap="round" stroke-linejoin="round"/>
<path d="M276 63V52.5" stroke="white" stroke-width="2" stroke-linecap="round" stroke-linejoin="round"/>
<path d="M280.667 63V51.3333" stroke="white" stroke-width="2" stroke-linecap="round" stroke-linejoin="round"/>
<path d="M266.667 63V54.8333" stroke="white" stroke-width="2" stroke-linecap="round" stroke-linejoin="round"/>
<path d="M264.333 56.5833L287.667 51.3333" stroke="white" stroke-width="2" stroke-linecap="round" stroke-linejoin="round"/>
<path fill-rule="evenodd" clip-rule="evenodd" d="M364.667 61.8333C364.667 56.0344 359.443 51.3333 353 51.3333C346.557 51.3333 341.333 56.0344 341.333 61.8333H364.667Z" stroke="white" stroke-width="2" stroke-linecap="round" stroke-linejoin="round"/>
<path d="M364.667 71.1667H341.333V74.6667H364.667V71.1667Z" stroke="white" stroke-width="2" stroke-linecap="round" stroke-linejoin="round"/>
<path d="M341.333 65.3333L344.515 67.6667L348.758 65.3333L353 67.6667L357.242 65.3333L361.485 67.6667L364.667 65.3333" stroke="white" stroke-width="2" stroke-linecap="round" stroke-linejoin="round"/>
<g clip-path="url(#clip1_1_527)">
<mask id="mask0_1_527" style="mask-type:luminance" maskUnits="userSpaceOnUse" x="412" y="49" width="28" height="28">
<path d="M440 49H412V77H440V49Z" fill="white"/>
</mask>
<g mask="url(#mask0_1_527)">
<path d="M420.972 68.159C417.672 67.3338 412.31 69.3964 417.672 71.4587C419.735 76.8211 421.797 71.4587 420.972 68.159Z" stroke="white" stroke-width="2" stroke-linecap="round" stroke-linejoin="round"/>
<path d="M425.115 54.9777C422.254 54.9701 418.563 55.8742 418.098 57.1523C417.761 58.0788 419.512 59.3114 421.744 59.9627" stroke="white" stroke-width="2" stroke-linecap="round" stroke-linejoin="round"/>
<path d="M434.154 64.0163C434.161 66.8767 433.257 70.5683 431.979 71.0333C431.053 71.3703 429.82 69.6189 429.169 67.3873" stroke="white" stroke-width="2" stroke-linecap="round" stroke-linejoin="round"/>
<path d="M434.166 64.0293C438.053 60.4916 435.406 53.7199 435.406 53.7199C435.406 53.7199 428.396 51.6597 425.096 54.9596C421.797 58.2594 420.972 68.1589 420.972 68.1589C420.972 68.1589 430.279 67.5671 434.166 64.0293Z" stroke="white" stroke-width="2" stroke-linecap="round" stroke-linejoin="round"/>
<path d="M434.171 64.0343C434.171 64.0343 430.253 63.4156 427.984 61.147C425.715 58.8783 425.097 54.9598 425.097 54.9598" stroke="white" stroke-width="2" stroke-linecap="round" stroke-linejoin="round"/>
<path d="M430.872 58.2595C431.327 58.7152 432.066 58.7152 432.522 58.2595C432.977 57.8039 432.977 57.0652 432.522 56.6096C432.066 56.154 431.327 56.154 430.872 56.6096C430.416 57.0652 430.416 57.8039 430.872 58.2595Z" fill="white"/>
<path d="M435.917 61.2177C435.601 62.2442 435.054 63.2212 434.166 64.0294C433.205 64.9041 431.913 65.5987 430.512 66.1488" stroke="white" stroke-width="2" stroke-linecap="round" stroke-linejoin="round"/>
<path d="M427.75 53.4662C426.76 53.751 425.835 54.2211 425.097 54.9597C424.406 55.6509 423.823 56.6315 423.334 57.75" stroke="white" stroke-width="2" stroke-linecap="round" stroke-linejoin="round"/>
</g>
</g>
<g clip-path="url(#clip2_1_527)">
<mask id="mask1_1_527" style="mask-type:luminance" maskUnits="userSpaceOnUse" x="0" y="0" width="28" height="28">
<path d="M28 0H0V28H28V0Z" fill="white"/>
</mask>
<g mask="url(#mask1_1_527)">
<path d="M14 23.3333C18.8325 23.3333 22.75 19.4158 22.75 14.5833C22.75 9.75082 18.8325 5.83333 14 5.83333C9.16749 5.83333 5.25 9.75082 5.25 14.5833C5.25 19.4158 9.16749 23.3333 14 23.3333Z" stroke="white" stroke-width="2" stroke-linecap="round" stroke-linejoin="round"/>
<path d="M11.6668 6.41666C12.7195 7.00484 13.7085 7.875 13.6256 9.00981C13.5593 9.91666 12.7837 10.119 12.6215 10.7748C12.4594 11.4306 13.3977 12.146 11.8104 13.2043C10.7522 13.9099 7.56642 15.2511 5.25 14" stroke="white" stroke-width="2" stroke-linecap="round"/>
<path d="M5.54173 14.2917C3.79173 15.3932 1.20647 18.3872 2.33366 20.4167C3.79167 23.0417 9.33357 20.8195 15.7501 15.75C22.1666 10.6805 24.6336 3.27041 24.6336 3.27041L21.5836 4.08333" stroke="white" stroke-width="2" stroke-linecap="round" stroke-linejoin="round"/>
<path d="M15.167 23.3333C15.167 23.3333 15.4585 20.4167 17.5 18.6667C19.5415 16.9167 22.1671 16.9167 22.1671 16.9167" stroke="white" stroke-width="2" stroke-linecap="round"/>
</g>
</g>
<path d="M82.1667 16.3333C83.9167 16.3333 89.4583 17.2083 89.4583 19.25C89.4583 21.2917 86.4798 20.8475 85.0833 21C83.8743 21 81 21 81 22.75C81 25.0833 92.9844 25.6667 95.2917 25.6667" stroke="white" stroke-width="2" stroke-linecap="round" stroke-linejoin="round"/>
<path d="M92.0833 8.75C92.0833 6.26109 89.5923 2.33334 86.1363 2.33334C82.6802 2.33334 80.0276 7 78.9847 11.3556C77.9417 15.7111 78.0907 21 78.0907 21" stroke="white" stroke-width="2" stroke-linecap="round" stroke-linejoin="round"/>
<path d="M89.1667 14C89.1667 12.5417 89.9833 9.91666 92.6667 9.91666C95 9.91666 96.2833 12.2747 96.75 14.2917C97.2167 16.3086 97.3333 19.25 97.3333 19.25" stroke="white" stroke-width="2" stroke-linecap="round" stroke-linejoin="round"/>
<path d="M321.394 15.06C320.871 16.3915 315.751 16.8149 310.461 15.3974C305.171 13.9799 301.84 11.4055 302.236 9.9267C303.131 6.58776 307.902 1.43632 314.725 3.90173C321.548 6.36714 322.288 11.721 321.394 15.06Z" stroke="white" stroke-width="2" stroke-linecap="round" stroke-linejoin="round"/>
<path d="M314.333 4.08334C314.333 4.08334 312 7.875 310.25 14C308.5 20.125 308.5 24.5 308.5 24.5" stroke="white" stroke-width="2" stroke-linecap="round" stroke-linejoin="round"/>
<path d="M314.334 4.08332C314.334 4.08332 308.38 5.15871 306.75 9.91667" stroke="white" stroke-width="2" stroke-linecap="round" stroke-linejoin="round"/>
<path d="M314.333 4.08334C314.333 4.08334 317.833 7.58333 316.083 12.8333" stroke="white" stroke-width="2" stroke-linecap="round" stroke-linejoin="round"/>
<path d="M303.833 25.0833C303.833 25.0833 309.083 24.2083 313.167 24.2083C317.25 24.2083 320.75 24.5 320.75 24.5" stroke="white" stroke-width="2" stroke-linecap="round" stroke-linejoin="round"/>
<path d="M314.333 4.08326C314.917 4.08326 316.083 3.49993 316.558 2.57813" stroke="white" stroke-width="2" stroke-linecap="round" stroke-linejoin="round"/>
<path d="M317.833 23.9167C317.833 22.9501 317.25 21.5833 315.5 21.5833C313.75 21.5833 313.167 22.9501 313.167 23.9167" stroke="white" stroke-width="2" stroke-linecap="round" stroke-linejoin="round"/>
<path d="M236.833 8.16673C236.833 8.16673 235.258 11.2545 234.5 15.1667C233.742 19.079 233.917 24.5001 233.917 24.5001" stroke="white" stroke-width="2" stroke-linecap="round" stroke-linejoin="round"/>
<path d="M243.806 13.5754C244.008 13.7093 244.327 13.8036 244.639 13.8688C245.182 13.982 245.685 13.6086 245.67 13.0538C245.644 12.0191 245.24 10.3266 243.186 8.96256C241.247 7.67468 239.321 7.65706 238.107 7.84215C237.414 7.94774 237.139 8.70444 237.536 9.28135C237.891 9.79632 238.304 10.3164 238.583 10.4158C239.167 10.6231 239.869 10.0763 240.38 10.4158C240.891 10.7552 240.739 11.5387 241.25 11.8782C241.761 12.2176 242.424 11.7735 242.936 12.113C243.447 12.4525 243.295 13.236 243.806 13.5754Z" stroke="white" stroke-width="2" stroke-linecap="round" stroke-linejoin="round"/>
<path d="M235.667 9.91661C236.167 9.74983 236.477 9.20144 236.65 8.76248C236.793 8.39971 236.665 7.99925 236.33 7.80074C235.574 7.35397 233.961 6.74269 231.444 7.47349C228.957 8.19583 228.3 9.83937 228.133 10.8072C228.055 11.2601 228.363 11.6698 228.82 11.7206C229.147 11.757 229.506 11.7408 229.721 11.5587C230.191 11.1593 230.319 10.6357 230.845 10.4947C231.371 10.3539 231.824 10.9951 232.35 10.8542C232.876 10.7133 232.948 9.93113 233.474 9.7902C234 9.64927 234.792 10.2083 235.667 9.91661Z" stroke="white" stroke-width="2" stroke-linecap="round" stroke-linejoin="round"/>
<path d="M239.75 3.50007C238.291 4.08341 236.833 7.00005 236.833 8.16672L244.417 4.66674C243.612 3.27173 241.209 2.91673 239.75 3.50007Z" stroke="white" stroke-width="2" stroke-linecap="round" stroke-linejoin="round"/>
<path d="M235.667 2.91674C238 3.74601 237.639 6.77174 236.833 8.16672L229.834 3.45436C230.417 2.33341 233.333 2.08746 235.667 2.91674Z" stroke="white" stroke-width="2" stroke-linecap="round" stroke-linejoin="round"/>
<path d="M239.167 20.4167C243.999 20.4167 246.75 21.4614 246.75 22.75C246.75 24.0386 242.833 25.0833 238 25.0833C233.167 25.0833 229.25 24.0386 229.25 22.75C229.25 22.4355 229.483 22.1355 229.906 21.8616" stroke="white" stroke-width="2" stroke-linecap="round"/>
<path d="M383.083 18.6668C380.75 18.6667 375.5 18.743 375.5 13.3823C375.5 12.362 375.846 10.3231 377.755 9.10729C378.141 8.86113 378.41 8.45443 378.475 8.00094C378.766 5.96499 380.23 2.33334 384.833 2.33334C386.171 2.33334 388.327 2.50831 389.724 4.62584C389.967 4.99413 390.363 5.24342 390.796 5.32803C392.878 5.73468 396.534 7.74416 396.5 11.6667C396.534 12.9327 396.242 14.785 393.872 15.9657C393.378 16.2114 393.067 16.7319 392.97 17.2744C392.707 18.7349 391.411 20.6353 387.75 21" stroke="white" stroke-width="2" stroke-linecap="round" stroke-linejoin="round"/>
<path d="M381.333 25.6667C385.471 18.1238 383.057 14.7857 381.333 14L389.5 12.8333C385.58 18.281 387.504 23.6587 388.956 25.6667H381.333Z" stroke="white" stroke-width="2" stroke-linecap="round" stroke-linejoin="round"/>
<path d="M173.667 14H165.5C165.5 12.0692 163.931 10.5 162 10.5C160.069 10.5 158.5 12.0692 158.5 14H150.333C150.333 7.55417 155.554 2.33334 162 2.33334C168.446 2.33334 173.667 7.55417 173.667 14Z" stroke="white" stroke-width="2" stroke-miterlimit="2" stroke-linejoin="round"/>
<path d="M158.5 14H150.333C150.333 20.4458 155.554 25.6667 162 25.6667C168.446 25.6667 173.667 20.4458 173.667 14H165.5" stroke="white" stroke-width="2" stroke-miterlimit="2" stroke-linecap="round" stroke-linejoin="round"/>
<path d="M162 17.5C163.933 17.5 165.5 15.933 165.5 14C165.5 12.067 163.933 10.5 162 10.5C160.067 10.5 158.5 12.067 158.5 14C158.5 15.933 160.067 17.5 162 17.5Z" stroke="white" stroke-width="2" stroke-miterlimit="2" stroke-linejoin="round"/>
<defs>
<clipPath id="clip0_1_527">
<rect width="28" height="28" fill="white" transform="translate(412 147)"/>
</clipPath>
<clipPath id="clip1_1_527">
<rect width="28" height="28" fill="white" transform="translate(412 49)"/>
</clipPath>
<clipPath id="clip2_1_527">
<rect width="28" height="28" fill="white"/>
</clipPath>
</defs>
</svg>
